<svg width="44" height="44" viewBox="0 0 44 44" fill="none" xmlns="http://www.w3.org/2000/svg">
<path fill-rule="evenodd" clip-rule="evenodd" d="M13.8787 11.8787C14.4413 11.3161 15.2044 11 16 11H24.5C24.7652 11 25.0196 11.1054 25.2071 11.2929L30.7071 16.7929C30.8946 16.9804 31 17.2348 31 17.5V30C31 30.7957 30.6839 31.5587 30.1213 32.1213C29.5587 32.6839 28.7957 33 28 33H16C15.2043 33 14.4413 32.6839 13.8787 32.1213C13.3161 31.5587 13 30.7957 13 30V14C13 13.2044 13.3161 12.4413 13.8787 11.8787ZM16 13C15.7348 13 15.4804 13.1054 15.2929 13.2929C15.1054 13.4804 15 13.7348 15 14V30C15 30.2652 15.1054 30.5196 15.2929 30.7071C15.4804 30.8946 15.7348 31 16 31H28C28.2652 31 28.5196 30.8946 28.7071 30.7071C28.8946 30.5196 29 30.2652 29 30V17.9142L24.0858 13H16Z" fill="#787575"/>
<path fill-rule="evenodd" clip-rule="evenodd" d="M24 11C24.5523 11 25 11.4477 25 12V17H30C30.5523 17 31 17.4477 31 18C31 18.5523 30.5523 19 30 19H24C23.4477 19 23 18.5523 23 18V12C23 11.4477 23.4477 11 24 11Z" fill="#787575"/>
<path fill-rule="evenodd" clip-rule="evenodd" d="M17 23C17 22.4477 17.4477 22 18 22H26C26.5523 22 27 22.4477 27 23C27 23.5523 26.5523 24 26 24H18C17.4477 24 17 23.5523 17 23Z" fill="#787575"/>
<path fill-rule="evenodd" clip-rule="evenodd" d="M17 27C17 26.4477 17.4477 26 18 26H26C26.5523 26 27 26.4477 27 27C27 27.5523 26.5523 28 26 28H18C17.4477 28 17 27.5523 17 27Z" fill="#787575"/>
<path fill-rule="evenodd" clip-rule="evenodd" d="M17 19C17 18.4477 17.4477 18 18 18H20C20.5523 18 21 18.4477 21 19C21 19.5523 20.5523 20 20 20H18C17.4477 20 17 19.5523 17 19Z" fill="#787575"/>
</svg>
