<svg width="24" height="24" viewBox="0 0 24 24" fill="none" xmlns="http://www.w3.org/2000/svg">
<path d="M9 12C9.53043 12 10.0391 11.7893 10.4142 11.4142C10.7893 11.0391 11 10.5304 11 10C11 9.46957 10.7893 8.96086 10.4142 8.58579C10.0391 8.21071 9.53043 8 9 8C8.46957 8 7.96086 8.21071 7.58579 8.58579C7.21071 8.96086 7 9.46957 7 10C7 10.5304 7.21071 11.0391 7.58579 11.4142C7.96086 11.7893 8.46957 12 9 12ZM21.5 6.5L12 1L2.5 6.5V17.5L12 23L21.5 17.5V6.5ZM12 3.311L19.5 7.653V14.533L14.938 11.797L6.967 17.775L4.5 16.347V7.653L12 3.311ZM12 20.689L8.848 18.864L15.062 14.204L19.06 16.602L12 20.689Z" fill="black"/>
</svg>
