<svg width="44" height="44" viewBox="0 0 44 44" fill="none" xmlns="http://www.w3.org/2000/svg">
<path d="M20.3906 28.3937C20.7814 28.3937 20.9507 28.2114 21.1721 28.003C21.5108 27.6774 25.8611 23.4442 25.8611 23.4442L23.191 22.793L20.7163 24.356L20.3906 28.2635V28.3937Z" fill="#787575"/>
<path d="M20.6524 24.4083L26.9565 29.0583C27.6729 29.449 28.1939 29.2536 28.3762 28.394L30.9422 16.3067C31.2027 15.2517 30.5384 14.7828 29.8481 15.0954L14.7911 20.9046C13.7621 21.3214 13.7751 21.8945 14.6087 22.142L18.4772 23.3533L27.4254 17.7134C27.8422 17.4529 28.2329 17.5962 27.9203 17.8828L20.6524 24.4083Z" fill="#787575"/>
</svg>
