<svg width="20" height="20" viewBox="0 0 20 20" fill="none" xmlns="http://www.w3.org/2000/svg">
<path fill-rule="evenodd" clip-rule="evenodd" d="M2.38631 9.25943C6.70514 7.37782 9.58507 6.13732 11.0261 5.53797C15.1403 3.82672 15.9951 3.52945 16.5524 3.51963C16.675 3.51749 16.9489 3.54786 17.1265 3.69188C17.2763 3.8135 17.3176 3.97778 17.3373 4.09308C17.3571 4.20839 17.3816 4.47106 17.362 4.67629C17.1392 7.01893 16.1744 12.7036 15.6836 15.3275C15.476 16.4376 15.0671 16.8098 14.6711 16.8462C13.8109 16.9255 13.1576 16.2777 12.3242 15.7315C11.0204 14.8767 10.2837 14.3448 9.01803 13.5107C7.55539 12.5467 8.50359 12.017 9.33717 11.1512C9.55532 10.9246 13.3459 7.47683 13.4193 7.16399C13.4285 7.12486 13.4371 6.97905 13.3504 6.90208C13.2637 6.82508 13.1359 6.85141 13.0436 6.87235C12.9129 6.90203 10.8299 8.27881 6.79464 11.0026C6.2034 11.4087 5.66786 11.6065 5.18803 11.5961C4.65907 11.5847 3.64155 11.2971 2.88513 11.0512C1.95735 10.7496 1.21996 10.5902 1.28417 10.078C1.31762 9.81116 1.68499 9.53832 2.38631 9.25943Z" fill="#0D0D0D"/>
</svg>
